<?xml version="1.0" encoding="UTF-8" standalone="no"?>
<!DOCTYPE svg PUBLIC "-//W3C//DTD SVG 1.1//EN" "http://www.w3.org/Graphics/SVG/1.1/DTD/svg11.dtd">
<!-- Created with Vectornator (http://vectornator.io/) -->
<svg height="100%" stroke-miterlimit="10" style="fill-rule:nonzero;clip-rule:evenodd;stroke-linecap:round;stroke-linejoin:round;" version="1.1" viewBox="0 0 158 158" width="100%" xml:space="preserve" xmlns="http://www.w3.org/2000/svg" xmlns:vectornator="http://vectornator.io" xmlns:xlink="http://www.w3.org/1999/xlink">
<defs/>
<clipPath id="ArtboardFrame">
<rect height="158" width="158" x="0" y="0"/>
</clipPath>
<g clip-path="url(#ArtboardFrame)" id="Layer-1" vectornator:layerName="Layer 1">
<path d="M146.079-1.25839L12.8361-1.25839C5.55552-1.25839-0.805665 3.98024-0.805665 11.1753L-0.805665 144.714C-0.805665 151.948 5.55552 158.395 12.8361 158.395L146.04 158.395C153.359 158.395 158.848 151.905 158.848 144.714L158.848 11.1753C158.89 3.98024 153.359-1.25839 146.079-1.25839ZM48.6833 131.82L25.8115 131.82L25.8115 60.707L48.6833 60.707L48.6833 131.82ZM38.0385 49.8948L37.8746 49.8948C30.5548 49.8948 25.8151 44.4459 25.8151 37.625C25.8151 30.6794 30.6795 25.3588 38.1633 25.3588C45.647 25.3588 50.2263 30.6402 50.3903 37.625C50.3867 44.4459 45.647 49.8948 38.0385 49.8948ZM132.273 131.82L109.401 131.82L109.401 92.937C109.401 83.6215 106.073 77.2568 97.798 77.2568C91.476 77.2568 87.7342 81.5332 86.0699 85.6992C85.4463 87.1959 85.2788 89.2343 85.2788 91.3155L85.2788 131.82L62.407 131.82L62.407 60.707L85.2788 60.707L85.2788 70.6034C88.6073 65.8637 93.8067 59.0428 105.905 59.0428C120.919 59.0428 132.277 68.9391 132.277 90.2749L132.273 131.82Z" fill="#000000" fill-rule="nonzero" opacity="1" stroke="none"/>
</g>
</svg>
