<svg xmlns="http://www.w3.org/2000/svg" class="ionicon s-ion-icon" viewBox="0 0 512 512"><title>Upwork </title><path fill="#d6d6d6b3" xmlns="http://www.w3.org/2000/svg" d="M405.9595 32.8672c-56.2752.2811-99.0463 38.7928-115.0597 100.1644C264.035 90.2505 243.0744 41.313 231.0574 0l-59.2293.2899.8206 162.4516c.1455 32.1648-24.9318 58.3635-56.0187 58.5151s-56.4034-25.7993-56.5487-57.9633L59.2593.8399 0 1.1382l.8171 162.459c.2331 67.4166 52.2903 120.8346 115.9955 120.4961 63.7112-.3389 115.3009-54.2078 115.014-121.6408l-.1219-27.5883c11.9418 24.448 26.8736 50.4213 43.2792 73.3409l-36.2175 179.4814 60.7068-.2894 26.0867-130.3986c23.7549 15.2179 50.4506 24.2771 81.5387 24.1232 65.167-.2963 118.2426-55.71 117.9151-126.2229-.2949-67.4518-53.8776-122.3452-119.0479-122.0398zm.8445 185.4395c-23.6925.1105-47.4323-10.4912-66.7577-27.2726l5.806-24.6181v-1.5452c4.332-26.0933 17.4418-70.5898 61.8695-70.7933 32.6827-.0618 59.28 27.1972 59.5316 61.0144-1.3351 35.2532-29.3437 62.9855-60.4595 63.1292z" fill-rule="nonzero"></path></svg>