<?xml version="1.0" encoding="UTF-8" standalone="no"?>
<!DOCTYPE svg PUBLIC "-//W3C//DTD SVG 1.1//EN" "http://www.w3.org/Graphics/SVG/1.1/DTD/svg11.dtd">
<!-- Created with Vectornator (http://vectornator.io/) -->
<svg height="100%" stroke-miterlimit="10" style="fill-rule:nonzero;clip-rule:evenodd;stroke-linecap:round;stroke-linejoin:round;" version="1.1" viewBox="0 0 158 158" width="100%" xml:space="preserve" xmlns="http://www.w3.org/2000/svg" xmlns:vectornator="http://vectornator.io" xmlns:xlink="http://www.w3.org/1999/xlink">
<defs/>
<clipPath id="ArtboardFrame">
<rect height="158" width="158" x="0" y="0"/>
</clipPath>
<g clip-path="url(#ArtboardFrame)" id="Layer-1" vectornator:layerName="Layer 1">
<path d="M-0.881966-1.43751L158.746-1.43751L158.746 159.173L-0.881966 159.173L-0.881966-1.43751Z" fill="#d6d6d6" fill-rule="nonzero" opacity="0.917036" stroke="#000000" stroke-linecap="butt" stroke-linejoin="miter" stroke-width="1.245"/>
<path d="M146.079-1.25839L12.8361-1.25839C5.55552-1.25839-0.805665 3.98024-0.805665 11.1753L-0.805665 144.714C-0.805665 151.948 5.55552 158.395 12.8361 158.395L146.04 158.395C153.359 158.395 158.848 151.905 158.848 144.714L158.848 11.1753C158.89 3.98024 153.359-1.25839 146.079-1.25839ZM48.6833 131.82L25.8115 131.82L25.8115 60.707L48.6833 60.707L48.6833 131.82ZM38.0385 49.8948L37.8746 49.8948C30.5548 49.8948 25.8151 44.4459 25.8151 37.625C25.8151 30.6794 30.6795 25.3588 38.1633 25.3588C45.647 25.3588 50.2263 30.6402 50.3903 37.625C50.3867 44.4459 45.647 49.8948 38.0385 49.8948ZM132.273 131.82L109.401 131.82L109.401 92.937C109.401 83.6215 106.073 77.2568 97.798 77.2568C91.476 77.2568 87.7342 81.5332 86.0699 85.6992C85.4463 87.1959 85.2788 89.2343 85.2788 91.3155L85.2788 131.82L62.407 131.82L62.407 60.707L85.2788 60.707L85.2788 70.6034C88.6073 65.8637 93.8067 59.0428 105.905 59.0428C120.919 59.0428 132.277 68.9391 132.277 90.2749L132.273 131.82Z" fill="#000000" fill-rule="nonzero" opacity="0" stroke="none"/>
</g>
<g id="Layer-2" vectornator:layerName="Layer 2" visibility="hidden">
<path d="M119.575 54.7419L62.6178 54.7419L62.6178 51.0096C62.6178 43.6793 69.9481 43.5403 73.6804 43.5403C77.9637 43.5403 79.904 43.9571 79.904 43.9571L79.904 23.7675C76.8764 23.3903 73.8279 23.2062 70.777 23.2164C58.8855 23.2164 36.8991 26.532 36.8991 51.6995L36.8991 54.8993L26.5265 54.8993L26.5265 73.5655L36.8991 73.5655L36.8991 112.972L27.2211 112.972L27.2211 131.638L73.949 131.638L73.949 112.954L62.6085 112.954L62.6085 73.547L93.7033 73.547L93.7033 112.954L84.0392 112.954L84.0392 131.62L129.257 131.62L129.257 112.954L119.575 112.954L119.575 54.7419Z" fill="#1e1e1f" fill-rule="nonzero" opacity="1" stroke="none"/>
<path d="M94.134 34.1401C94.134 27.2683 99.7047 21.6976 106.577 21.6976C113.448 21.6976 119.019 27.2683 119.019 34.1401C119.019 41.012 113.448 46.5827 106.577 46.5827C99.7047 46.5827 94.134 41.012 94.134 34.1401Z" fill="#1e1e1f" fill-rule="nonzero" opacity="1" stroke="none"/>
</g>
<g id="Layer-3" vectornator:layerName="Layer 3">
<path d="M108.51 34.8423C97.1003 34.9191 88.4287 45.4469 85.1821 62.2238C79.7354 50.5289 75.4858 37.1511 73.0494 25.8575L61.041 25.9368L61.2074 70.3454C61.2369 79.1382 56.1526 86.3 49.85 86.3414C43.5473 86.3829 38.4145 79.2888 38.385 70.4963L38.2184 26.0871L26.2039 26.1687L26.3696 70.5794C26.4168 89.0087 36.9711 103.611 49.887 103.519C62.804 103.426 73.2635 88.7003 73.2054 70.2664L73.1807 62.7247C75.6018 69.408 78.6291 76.5082 81.9553 82.7736L74.6124 131.838L86.9203 131.759L92.2092 96.112C97.0254 100.272 102.438 102.749 108.741 102.706C121.953 102.625 132.714 87.4773 132.647 68.2015C132.588 49.7625 121.724 34.7566 108.511 34.8401L108.51 34.8423ZM108.681 85.535C103.877 85.5652 99.0644 82.6671 95.1463 78.0797L96.3234 71.3499L96.3234 70.9275C97.2017 63.7945 99.8596 51.6307 108.867 51.5751C115.493 51.5582 120.886 59.0098 120.937 68.2543C120.666 77.8913 114.987 85.4724 108.679 85.5116L108.681 85.535Z" fill="#1e1e1f" fill-rule="nonzero" opacity="1" stroke="none"/>
</g>
</svg>
